<svg xmlns="http://www.w3.org/2000/svg" viewBox="0 0 64 64" role="img" aria-labelledby="title desc">
  <title id="title">Millena</title>
  <desc id="desc">Stilizirano žensko lice povezano s digitalnom mrežom.</desc>
  <rect width="64" height="64" rx="14" fill="#6D28D9"/>
  <path d="M12.5 53c1.8-7.4-.6-15.4 1.2-23.7C16 18.2 23.6 10.9 34 10.2c9.4-.6 17 5 19.2 13.8 2.5 10-2.1 21.4-8.5 29H12.5Z" fill="#A78BFA"/>
  <path d="M28.8 15.2c7.5-3.4 14.7 1.7 15.5 9.7.4 3.5 1 5.6 3.5 7.4 1.4 1 1 2.8-.7 3.2l-2.2.5c.3 3.7-1.6 7.1-5.1 8.6-1.5.6-3 .7-4.5.4-1.4 3.5-1.3 6.1.3 8H23.1c2.2-4.5 3.3-9.4 3.1-14.8-.2-5.7-1.7-12.3 2.6-23Z" fill="#FAF9FF"/>
  <path d="M18.5 49.8c2.7-7.8 2.6-14.8 1.8-21.2-.7-5.9 1.8-11.4 7.5-15.6 3.8-2.8 8.6-3.6 14.5-2.3-6.2 1.2-10.7 4.5-13.4 9.8-2.4 4.8-3.2 10.4-2.5 16.7.6 5.1-.6 9.4-3.4 12.8l-4.5-.2Z" fill="#C4B5FD"/>
  <path d="M35.3 25.1c1.9-1.1 3.8-1.1 5.7 0" fill="none" stroke="#6D28D9" stroke-width="1.7" stroke-linecap="round"/>
  <circle cx="39.2" cy="27.2" r="1.25" fill="#6D28D9"/>
  <path d="M43 35.9c-1.5 1.2-3.2 1.5-5.2.9" fill="none" stroke="#8B5CF6" stroke-width="1.5" stroke-linecap="round"/>
  <circle cx="44.8" cy="40.2" r="2.2" fill="#2DD4BF"/>
  <path d="M45.2 20.3c4.7-.1 7.6 1.9 8.9 5.9M48.1 32.8h7.2M47.2 43.5c3.9-.8 6.5-3 7.9-6.5" fill="none" stroke="#DDD6FE" stroke-width="1.6" stroke-linecap="round"/>
  <circle cx="54.2" cy="26.3" r="2.5" fill="#2DD4BF"/>
  <circle cx="55.4" cy="32.8" r="2" fill="#FAF9FF"/>
  <circle cx="55.1" cy="37" r="1.6" fill="#C4B5FD"/>
</svg>
